<svg version="1.1" id="Calque_1" xmlns="http://www.w3.org/2000/svg" x="0" y="0" viewBox="0 0 323.7 167.2" style="enable-background:new 0 0 323.7 167.2" xml:space="preserve"><style>.st0{fill:#21b8e0}.st1{fill:#002c50}</style><path class="st0" d="M34.9 16.3h1c.2 0 .4 0 .6.1.1 0 .3 0 .4.1.2 0 .4.1.6.1.1 0 .3.1.4.1.2 0 .4.1.6.1.2 0 .3.1.4.1.2.1.4.1.5.2.2.1.3.1.5.2s.3.1.5.2.3.1.5.2.3.1.5.2.3.2.5.2c.1.1.3.1.4.2.4.2.7.4 1 .6l.9.6c.3.2.6.4.8.7.3.2.5.4.8.7.3.2.5.5.8.8l.7.7c.2.3.4.6.7.8l.6.9c-.1-.1-.1-.2-.2-.2l11.8-8.2c-.1-.1-.2-.3-.3-.4l-.6-.9c-.2-.2-.3-.4-.5-.6-.2-.3-.4-.6-.7-.8-.2-.2-.4-.4-.5-.6-.2-.3-.5-.5-.7-.8l-.6-.6c-.3-.2-.5-.5-.8-.7-.2-.2-.4-.4-.7-.6-.3-.2-.5-.4-.8-.7-.2-.2-.5-.4-.7-.6-.3-.2-.5-.4-.8-.6-.3-.2-.5-.4-.8-.5-.3-.2-.5-.4-.8-.5-.3-.2-.6-.3-.9-.5 0-.2-.2-.3-.4-.4-.1-.1-.2-.1-.4-.2-.1-.1-.2-.1-.3-.2-.2-.1-.4-.2-.5-.3-.3-.1-.6-.3-.9-.4-.3-.1-.6-.3-.9-.4-.3-.1-.6-.2-.9-.4l-.9-.3-.9-.3c-.3-.1-.7-.2-1-.3-.3-.1-.6-.2-.8-.2-.3-.1-.7-.2-1-.2-.3-.1-.5-.1-.8-.2-.4-.1-.7-.1-1.1-.2-.3 0-.5-.1-.8-.1-.4 0-.7-.1-1.1-.1-.3 0-.5-.1-.8-.1-.3 0-.7 0-1-.1h-1.3v14.4h.7z"/><path class="st1" d="M60.7 16.3c-.1-.1-.2-.3-.3-.4-.1-.1-.1-.2-.2-.3l-11.8 8.2c.1.1.1.2.2.2 3.4 5.1 4 11.8.9 17.6-4.4 8.5-14.9 11.7-23.4 7.3-8.5-4.4-11.7-14.9-7.3-23.4 3.1-5.9 9.1-9.3 15.4-9.3V1.8C22.8 1.8 11.7 8 6 18.8c-8.1 15.5-2.2 34.7 13.3 42.9 15.5 8.1 34.7 2.2 42.9-13.3 5.6-10.5 4.6-22.8-1.5-32.1zM61.6 126l-.3-.1c-9.5-3-10.2-4.6-10.2-7 0-3.2 2.6-5 6.9-5 4.8 0 8.1 2.2 10.2 6.8l1 2.2 11.9-6.9-.9-1.8c-4.2-8.9-12.3-14-22.2-14-10.4 0-20.8 6.5-20.8 18.9 0 12.2 9.2 16 19.4 19.1 9.4 2.9 11.7 4.3 11.7 7.5 0 3.5-3.1 5.5-8.6 5.5-6.3 0-10.4-2.8-12.4-8.3l-.9-2.5-12 7.1.6 1.7c3.6 10 12.5 15.7 24.4 15.7 13.8 0 22.7-7.6 22.7-19.3 0-13.1-10.4-16.4-20.5-19.6z"/><path class="st0" d="M258.4 49.2c-4.3 0-7.7 3.5-7.7 7.7s3.5 7.7 7.7 7.7c4.3 0 7.7-3.5 7.7-7.7s-3.5-7.7-7.7-7.7z"/><path class="st1" d="M296.8 115.5c-13.5 0-24.6 11-24.6 24.6 0 13.5 11 24.6 24.6 24.6s24.6-11 24.6-24.6c0-13.5-11-24.6-24.6-24.6zm0 13.8c5.9 0 10.7 4.8 10.7 10.7s-4.8 10.7-10.7 10.7c-5.9 0-10.7-4.8-10.7-10.7s4.8-10.7 10.7-10.7zM226.2 87v32.3c-3.4-3.2-8-4.8-13.7-4.8-4.6 0-8.8 1-12.5 3.1-3.7 2.1-6.7 5-8.8 8.9-2.1 3.8-3.2 8.3-3.2 13.3s1.1 9.5 3.2 13.3c2.1 3.8 5.1 6.8 8.8 8.9 3.7 2.1 7.9 3.1 12.5 3.1 6 0 10.8-1.8 14.3-5.2v4.5h14.5V87h-15.1zm.2 52.7c0 3.8-1.1 6.9-3.3 9.2-2.2 2.3-4.9 3.4-8.2 3.4-3.4 0-6.2-1.1-8.3-3.4-2.2-2.3-3.3-5.4-3.3-9.2 0-3.8 1.1-6.9 3.3-9.2 2.2-2.3 5-3.4 8.3-3.4 3.3 0 6.1 1.1 8.2 3.4 2.2 2.2 3.3 5.3 3.3 9.2zM250.8 115.2h15.1v49h-15.1zM181.4 27.2c-2.2-3.8-5.3-6.8-9.2-8.9-3.9-2.1-8.2-3.1-13-3.1-4.9 0-9.4 1.1-13.3 3.2-4 2.1-7.1 5.2-9.4 9-2.3 3.9-3.4 8.2-3.4 13 0 4.8 1.2 9.2 3.5 13 2.3 3.8 5.6 6.8 9.8 9 4.2 2.1 9.1 3.2 14.6 3.2 6.5 0 11.9-1.5 16.2-4.4l.5-.3-6.4-10.7-.6.4c-1 .7-2 1.2-3 1.6-1.8.7-4 1.1-6.4 1.1-3.5 0-6.4-.8-8.7-2.5-2.1-1.5-3.5-3.4-4.2-5.9h35.9l.1-1c.2-2.4.2-3.2.2-3.4.2-5-1-9.5-3.2-13.3zm-11.1 8.4h-22c.5-2.6 1.7-4.6 3.6-6.2 2-1.7 4.5-2.5 7.5-2.5 2.9 0 5.4.9 7.4 2.6 1.8 1.5 3 3.6 3.5 6.1zM165.8 115.2v24.3c0 4.1-1 7.2-2.8 9.2-1.9 2-4.4 3-7.5 3-6.1 0-9-3.6-9-10.9v-25.6h-15.1v27.6c0 7.2 1.9 12.8 5.7 16.5 3.8 3.7 8.9 5.6 15.4 5.6 3 0 5.9-.6 8.5-1.7 2.1-.9 4-2.2 5.7-3.8v4.7h14.4v-49h-15.3zM235.7 20.4c-3.7-3.7-8.7-5.5-14.8-5.5-3.3 0-6.4.6-9.2 1.7-2.3.9-4.3 2.2-6 3.7v-4.7h-14.5v49h15.1V40.3c0-4.1 1-7.2 2.9-9.2 1.9-2 4.6-3 7.9-3 2.9 0 5.2.9 6.7 2.6 1.5 1.7 2.3 4.4 2.3 8.1v25.9h15.1v-28c.1-7.2-1.8-12.7-5.5-16.3zM123.9 26.9c-2.1-3.8-5.1-6.8-8.8-8.9-3.7-2.1-7.9-3.1-12.4-3.1-6.1 0-10.9 1.8-14.4 5.2v-4.5H73.8v71.3h15.1V60.5c3.5 3.2 8.1 4.9 13.7 4.9 4.5 0 8.7-1.1 12.4-3.1 3.7-2.1 6.7-5.1 8.8-8.9 2.1-3.8 3.2-8.2 3.2-13.2.1-5.1-1-9.6-3.1-13.3zm-12.1 13.2c0 3.8-1.1 6.9-3.2 9.2-2.2 2.3-4.9 3.4-8.3 3.4-3.4 0-6.2-1.1-8.3-3.4-2.2-2.3-3.2-5.4-3.2-9.2 0-3.8 1.1-6.9 3.2-9.2 2.1-2.3 4.9-3.4 8.3-3.4 3.4 0 6.1 1.1 8.3 3.4 2.1 2.3 3.2 5.3 3.2 9.2zM120.1 151.6l-.5.2c-1.1.5-2.4.8-3.7.8-1.7 0-3-.5-3.9-1.4-.9-1-1.4-2.4-1.4-4.2v-19.9h12.6v-11.9h-12.6V98l-15.1 8.7v8.4H88V127h7.5v20.1c0 5.8 1.6 10.2 4.9 13.2 3.2 3 7.8 4.5 13.6 4.5 2.2 0 4.4-.3 6.4-.8s3.8-1.3 5.2-2.3l.3-.2-5.8-9.9z"/><path d="M124.4 16.3c-.1-.1-.2-.3-.3-.4.1.1.2.3.3.4z" style="fill:#1eb7e0"/></svg>